<svg xmlns="http://www.w3.org/2000/svg" xmlns:xlink="http://www.w3.org/1999/xlink" width="320" height="332" viewBox="-294 -300 320 332"><title>New Schematic</title><style type="text/css">
path, polyline, polygon {stroke-linejoin:round;}
path, polyline, polygon, line {stroke-linecap:round;}
rect, circle, ellipse, polyline, line, polygon, path {shape-rendering:crispEdges;}
</style>
<rect x="-294" y="-300" width="320" height="332" fill="#FFFFFF" stroke="none"/><g xmlns="http://www.w3.org/2000/svg" c_spicecmd="TRAN`1u`1m`0`{AC`dec`10`1Hz`1Meg`{DC`0``0`0`{TF```"><g c_origin="-130,-160" c_para="package`ARDUINO_PRO_MICRO`catid`20`description``Contributor`SparkFun`sourceId`1le8qI0Uc`BOM_Manufacturer Part`?`spicePre`U`" c_partid="part_import_975487" c_shapetype="group"><g xmlns="http://www.w3.org/2000/svg" c_partid="part_annotation"><text x="-130.8125" y="-233" font-family="Arial" font-size="7pt" fill="#000080" text-anchor="start">ARDUINO_PRO_MICRO</text></g><g xmlns="http://www.w3.org/2000/svg" c_partid="part_annotation"><text x="-130.8125" y="-241.9375" font-family="Arial" font-size="7pt" fill="#000080" text-anchor="start">U1</text></g><polyline points="-160 -230 -160 -100" stroke="#8D2323" stroke-width="1" fill="none" stroke-linecap="round"/><polyline points="-90 -100 -90 -230" stroke="#8D2323" stroke-width="1" fill="none" stroke-linecap="round"/><polyline points="-90 -230 -160 -230" stroke="#8D2323" stroke-width="1" fill="none" stroke-linecap="round"/><polyline points="-160 -100 -90 -100" stroke="#8D2323" stroke-width="1" fill="none" stroke-linecap="round"/><g c_partid="part_pin" c_etype="pinpart" c_show="show" c_elec="0" c_spicepin="5" c_origin="-170,-180"><path d="M -170 -180 h 10" fill="none" stroke="#8D2323" stroke-width="1"/><text x="-157" y="-177" font-family="Verdana" font-size="7pt" fill="#8D2323" text-anchor="start">2</text><text x="-166" y="-181" font-family="Verdana" font-size="7pt" fill="#8D2323" text-anchor="end">5</text><circle cx="-163" cy="-180" r="3" stroke="#8D2323" fill="none" stroke-width="1" display="none"/><path d="M -160 -177 L -157 -180 L -160 -183" fill="none" stroke="#8D2323" stroke-width="1" display="none"/></g><g c_partid="part_pin" c_etype="pinpart" c_show="show" c_elec="0" c_spicepin="6" c_origin="-170,-170"><path d="M -170 -170 h 10" fill="none" stroke="#8D2323" stroke-width="1"/><text x="-157" y="-167" font-family="Verdana" font-size="7pt" fill="#8D2323" text-anchor="start">*3</text><text x="-166" y="-171" font-family="Verdana" font-size="7pt" fill="#8D2323" text-anchor="end">6</text><circle cx="-163" cy="-170" r="3" stroke="#8D2323" fill="none" stroke-width="1" display="none"/><path d="M -160 -167 L -157 -170 L -160 -173" fill="none" stroke="#8D2323" stroke-width="1" display="none"/></g><g c_partid="part_pin" c_etype="pinpart" c_show="show" c_elec="0" c_spicepin="7" c_origin="-170,-160"><path d="M -170 -160 h 10" fill="none" stroke="#8D2323" stroke-width="1"/><text x="-157" y="-157" font-family="Verdana" font-size="7pt" fill="#8D2323" text-anchor="start">4</text><text x="-166" y="-161" font-family="Verdana" font-size="7pt" fill="#8D2323" text-anchor="end">7</text><circle cx="-163" cy="-160" r="3" stroke="#8D2323" fill="none" stroke-width="1" display="none"/><path d="M -160 -157 L -157 -160 L -160 -163" fill="none" stroke="#8D2323" stroke-width="1" display="none"/></g><g c_partid="part_pin" c_etype="pinpart" c_show="show" c_elec="0" c_spicepin="8" c_origin="-170,-150"><path d="M -170 -150 h 10" fill="none" stroke="#8D2323" stroke-width="1"/><text x="-157" y="-147" font-family="Verdana" font-size="7pt" fill="#8D2323" text-anchor="start">*5</text><text x="-166" y="-151" font-family="Verdana" font-size="7pt" fill="#8D2323" text-anchor="end">8</text><circle cx="-163" cy="-150" r="3" stroke="#8D2323" fill="none" stroke-width="1" display="none"/><path d="M -160 -147 L -157 -150 L -160 -153" fill="none" stroke="#8D2323" stroke-width="1" display="none"/></g><g c_partid="part_pin" c_etype="pinpart" c_show="show" c_elec="0" c_spicepin="9" c_origin="-170,-140"><path d="M -170 -140 h 10" fill="none" stroke="#8D2323" stroke-width="1"/><text x="-157" y="-137" font-family="Verdana" font-size="7pt" fill="#8D2323" text-anchor="start">*6</text><text x="-166" y="-141" font-family="Verdana" font-size="7pt" fill="#8D2323" text-anchor="end">9</text><circle cx="-163" cy="-140" r="3" stroke="#8D2323" fill="none" stroke-width="1" display="none"/><path d="M -160 -137 L -157 -140 L -160 -143" fill="none" stroke="#8D2323" stroke-width="1" display="none"/></g><g c_partid="part_pin" c_etype="pinpart" c_show="show" c_elec="0" c_spicepin="10" c_origin="-170,-130"><path d="M -170 -130 h 10" fill="none" stroke="#8D2323" stroke-width="1"/><text x="-157" y="-127" font-family="Verdana" font-size="7pt" fill="#8D2323" text-anchor="start">7</text><text x="-166" y="-131" font-family="Verdana" font-size="7pt" fill="#8D2323" text-anchor="end">10</text><circle cx="-163" cy="-130" r="3" stroke="#8D2323" fill="none" stroke-width="1" display="none"/><path d="M -160 -127 L -157 -130 L -160 -133" fill="none" stroke="#8D2323" stroke-width="1" display="none"/></g><g c_partid="part_pin" c_etype="pinpart" c_show="show" c_elec="0" c_spicepin="11" c_origin="-170,-120"><path d="M -170 -120 h 10" fill="none" stroke="#8D2323" stroke-width="1"/><text x="-157" y="-117" font-family="Verdana" font-size="7pt" fill="#8D2323" text-anchor="start">8</text><text x="-166" y="-121" font-family="Verdana" font-size="7pt" fill="#8D2323" text-anchor="end">11</text><circle cx="-163" cy="-120" r="3" stroke="#8D2323" fill="none" stroke-width="1" display="none"/><path d="M -160 -117 L -157 -120 L -160 -123" fill="none" stroke="#8D2323" stroke-width="1" display="none"/></g><g c_partid="part_pin" c_etype="pinpart" c_show="show" c_elec="0" c_spicepin="12" c_origin="-170,-110"><path d="M -170 -110 h 10" fill="none" stroke="#8D2323" stroke-width="1"/><text x="-157" y="-107" font-family="Verdana" font-size="7pt" fill="#8D2323" text-anchor="start">*9</text><text x="-166" y="-111" font-family="Verdana" font-size="7pt" fill="#8D2323" text-anchor="end">12</text><circle cx="-163" cy="-110" r="3" stroke="#8D2323" fill="none" stroke-width="1" display="none"/><path d="M -160 -107 L -157 -110 L -160 -113" fill="none" stroke="#8D2323" stroke-width="1" display="none"/></g><g c_partid="part_pin" c_etype="pinpart" c_show="show" c_elec="0" c_spicepin="13" c_origin="-80,-110"><path d="M -80 -110 h -10" fill="none" stroke="#8D2323" stroke-width="1"/><text x="-93" y="-107" font-family="Verdana" font-size="7pt" fill="#8D2323" text-anchor="end">*10</text><text x="-84" y="-111" font-family="Verdana" font-size="7pt" fill="#8D2323" text-anchor="start">13</text><circle cx="-87" cy="-110" r="3" stroke="#8D2323" fill="none" stroke-width="1" display="none"/><path d="M -90 -113 L -93 -110 L -90 -107" fill="none" stroke="#8D2323" stroke-width="1" display="none"/></g><g c_partid="part_pin" c_etype="pinpart" c_show="show" c_elec="0" c_spicepin="14" c_origin="-80,-120"><path d="M -80 -120 h -10" fill="none" stroke="#8D2323" stroke-width="1"/><text x="-93" y="-117" font-family="Verdana" font-size="7pt" fill="#8D2323" text-anchor="end">11(MOSI)</text><text x="-84" y="-121" font-family="Verdana" font-size="7pt" fill="#8D2323" text-anchor="start">14</text><circle cx="-87" cy="-120" r="3" stroke="#8D2323" fill="none" stroke-width="1" display="none"/><path d="M -90 -123 L -93 -120 L -90 -117" fill="none" stroke="#8D2323" stroke-width="1" display="none"/></g><g c_partid="part_pin" c_etype="pinpart" c_show="show" c_elec="0" c_spicepin="15" c_origin="-80,-130"><path d="M -80 -130 h -10" fill="none" stroke="#8D2323" stroke-width="1"/><text x="-93" y="-127" font-family="Verdana" font-size="7pt" fill="#8D2323" text-anchor="end">12(MISO)</text><text x="-84" y="-131" font-family="Verdana" font-size="7pt" fill="#8D2323" text-anchor="start">15</text><circle cx="-87" cy="-130" r="3" stroke="#8D2323" fill="none" stroke-width="1" display="none"/><path d="M -90 -133 L -93 -130 L -90 -127" fill="none" stroke="#8D2323" stroke-width="1" display="none"/></g><g c_partid="part_pin" c_etype="pinpart" c_show="show" c_elec="0" c_spicepin="16" c_origin="-80,-140"><path d="M -80 -140 h -10" fill="none" stroke="#8D2323" stroke-width="1"/><text x="-93" y="-137" font-family="Verdana" font-size="7pt" fill="#8D2323" text-anchor="end">13(SCK)</text><text x="-84" y="-141" font-family="Verdana" font-size="7pt" fill="#8D2323" text-anchor="start">16</text><circle cx="-87" cy="-140" r="3" stroke="#8D2323" fill="none" stroke-width="1" display="none"/><path d="M -90 -143 L -93 -140 L -90 -137" fill="none" stroke="#8D2323" stroke-width="1" display="none"/></g><g c_partid="part_pin" c_etype="pinpart" c_show="show" c_elec="0" c_spicepin="17" c_origin="-80,-150"><path d="M -80 -150 h -10" fill="none" stroke="#8D2323" stroke-width="1"/><text x="-93" y="-147" font-family="Verdana" font-size="7pt" fill="#8D2323" text-anchor="end">A0</text><text x="-84" y="-151" font-family="Verdana" font-size="7pt" fill="#8D2323" text-anchor="start">17</text><circle cx="-87" cy="-150" r="3" stroke="#8D2323" fill="none" stroke-width="1" display="none"/><path d="M -90 -153 L -93 -150 L -90 -147" fill="none" stroke="#8D2323" stroke-width="1" display="none"/></g><g c_partid="part_pin" c_etype="pinpart" c_show="show" c_elec="0" c_spicepin="18" c_origin="-80,-160"><path d="M -80 -160 h -10" fill="none" stroke="#8D2323" stroke-width="1"/><text x="-93" y="-157" font-family="Verdana" font-size="7pt" fill="#8D2323" text-anchor="end">A1</text><text x="-84" y="-161" font-family="Verdana" font-size="7pt" fill="#8D2323" text-anchor="start">18</text><circle cx="-87" cy="-160" r="3" stroke="#8D2323" fill="none" stroke-width="1" display="none"/><path d="M -90 -163 L -93 -160 L -90 -157" fill="none" stroke="#8D2323" stroke-width="1" display="none"/></g><g c_partid="part_pin" c_etype="pinpart" c_show="show" c_elec="0" c_spicepin="19" c_origin="-80,-170"><path d="M -80 -170 h -10" fill="none" stroke="#8D2323" stroke-width="1"/><text x="-93" y="-167" font-family="Verdana" font-size="7pt" fill="#8D2323" text-anchor="end">A2</text><text x="-84" y="-171" font-family="Verdana" font-size="7pt" fill="#8D2323" text-anchor="start">19</text><circle cx="-87" cy="-170" r="3" stroke="#8D2323" fill="none" stroke-width="1" display="none"/><path d="M -90 -173 L -93 -170 L -90 -167" fill="none" stroke="#8D2323" stroke-width="1" display="none"/></g><g c_partid="part_pin" c_etype="pinpart" c_show="show" c_elec="0" c_spicepin="20" c_origin="-80,-180"><path d="M -80 -180 h -10" fill="none" stroke="#8D2323" stroke-width="1"/><text x="-93" y="-177" font-family="Verdana" font-size="7pt" fill="#8D2323" text-anchor="end">A3</text><text x="-84" y="-181" font-family="Verdana" font-size="7pt" fill="#8D2323" text-anchor="start">20</text><circle cx="-87" cy="-180" r="3" stroke="#8D2323" fill="none" stroke-width="1" display="none"/><path d="M -90 -183 L -93 -180 L -90 -177" fill="none" stroke="#8D2323" stroke-width="1" display="none"/></g><g c_partid="part_pin" c_etype="pinpart" c_show="show" c_elec="0" c_spicepin="4" c_origin="-170,-190"><path d="M -170 -190 h 10" fill="none" stroke="#8D2323" stroke-width="1"/><text x="-157" y="-187" font-family="Verdana" font-size="7pt" fill="#8D2323" text-anchor="start">GND</text><text x="-166" y="-191" font-family="Verdana" font-size="7pt" fill="#8D2323" text-anchor="end">4</text><circle cx="-163" cy="-190" r="3" stroke="#8D2323" fill="none" stroke-width="1" display="none"/><path d="M -160 -187 L -157 -190 L -160 -193" fill="none" stroke="#8D2323" stroke-width="1" display="none"/></g><g c_partid="part_pin" c_etype="pinpart" c_show="show" c_elec="0" c_spicepin="23" c_origin="-80,-210"><path d="M -80 -210 h -10" fill="none" stroke="#8D2323" stroke-width="1"/><text x="-93" y="-207" font-family="Verdana" font-size="7pt" fill="#8D2323" text-anchor="end">GND</text><text x="-84" y="-211" font-family="Verdana" font-size="7pt" fill="#8D2323" text-anchor="start">23</text><circle cx="-87" cy="-210" r="3" stroke="#8D2323" fill="none" stroke-width="1" display="none"/><path d="M -90 -213 L -93 -210 L -90 -207" fill="none" stroke="#8D2323" stroke-width="1" display="none"/></g><g c_partid="part_pin" c_etype="pinpart" c_show="show" c_elec="0" c_spicepin="24" c_origin="-80,-220"><path d="M -80 -220 h -10" fill="none" stroke="#8D2323" stroke-width="1"/><text x="-93" y="-217" font-family="Verdana" font-size="7pt" fill="#8D2323" text-anchor="end">RAW</text><text x="-84" y="-221" font-family="Verdana" font-size="7pt" fill="#8D2323" text-anchor="start">24</text><circle cx="-87" cy="-220" r="3" stroke="#8D2323" fill="none" stroke-width="1" display="none"/><path d="M -90 -223 L -93 -220 L -90 -217" fill="none" stroke="#8D2323" stroke-width="1" display="none"/></g><g c_partid="part_pin" c_etype="pinpart" c_show="show" c_elec="0" c_spicepin="3" c_origin="-170,-200"><path d="M -170 -200 h 10" fill="none" stroke="#8D2323" stroke-width="1"/><text x="-157" y="-197" font-family="Verdana" font-size="7pt" fill="#8D2323" text-anchor="start">GND</text><text x="-166" y="-201" font-family="Verdana" font-size="7pt" fill="#8D2323" text-anchor="end">3</text><circle cx="-163" cy="-200" r="3" stroke="#8D2323" fill="none" stroke-width="1" display="none"/><path d="M -160 -197 L -157 -200 L -160 -203" fill="none" stroke="#8D2323" stroke-width="1" display="none"/></g><g c_partid="part_pin" c_etype="pinpart" c_show="show" c_elec="0" c_spicepin="22" c_origin="-80,-200"><path d="M -80 -200 h -10" fill="none" stroke="#8D2323" stroke-width="1"/><text x="-93" y="-197" font-family="Verdana" font-size="7pt" fill="#8D2323" text-anchor="end">RESET</text><text x="-84" y="-201" font-family="Verdana" font-size="7pt" fill="#8D2323" text-anchor="start">22</text><circle cx="-87" cy="-200" r="3" stroke="#8D2323" fill="none" stroke-width="1" display="none"/><path d="M -90 -203 L -93 -200 L -90 -197" fill="none" stroke="#8D2323" stroke-width="1" display="none"/></g><g c_partid="part_pin" c_etype="pinpart" c_show="show" c_elec="0" c_spicepin="2" c_origin="-170,-210"><path d="M -170 -210 h 10" fill="none" stroke="#8D2323" stroke-width="1"/><text x="-157" y="-207" font-family="Verdana" font-size="7pt" fill="#8D2323" text-anchor="start">RXI</text><text x="-166" y="-211" font-family="Verdana" font-size="7pt" fill="#8D2323" text-anchor="end">2</text><circle cx="-163" cy="-210" r="3" stroke="#8D2323" fill="none" stroke-width="1" display="none"/><path d="M -160 -207 L -157 -210 L -160 -213" fill="none" stroke="#8D2323" stroke-width="1" display="none"/></g><g c_partid="part_pin" c_etype="pinpart" c_show="show" c_elec="0" c_spicepin="1" c_origin="-170,-220"><path d="M -170 -220 h 10" fill="none" stroke="#8D2323" stroke-width="1"/><text x="-157" y="-217" font-family="Verdana" font-size="7pt" fill="#8D2323" text-anchor="start">TXO</text><text x="-166" y="-221" font-family="Verdana" font-size="7pt" fill="#8D2323" text-anchor="end">1</text><circle cx="-163" cy="-220" r="3" stroke="#8D2323" fill="none" stroke-width="1" display="none"/><path d="M -160 -217 L -157 -220 L -160 -223" fill="none" stroke="#8D2323" stroke-width="1" display="none"/></g><g c_partid="part_pin" c_etype="pinpart" c_show="show" c_elec="0" c_spicepin="21" c_origin="-80,-190"><path d="M -80 -190 h -10" fill="none" stroke="#8D2323" stroke-width="1"/><text x="-93" y="-187" font-family="Verdana" font-size="7pt" fill="#8D2323" text-anchor="end">VCC</text><text x="-84" y="-191" font-family="Verdana" font-size="7pt" fill="#8D2323" text-anchor="start">21</text><circle cx="-87" cy="-190" r="3" stroke="#8D2323" fill="none" stroke-width="1" display="none"/><path d="M -90 -193 L -93 -190 L -90 -187" fill="none" stroke="#8D2323" stroke-width="1" display="none"/></g></g><g eelibtitle="Resistor(EU)" c_origin="-240,-170" c_para="package`R3`nameAlias`Value(&#937;)`BOM_Manufacturer Part`?`spicePre`R`spiceSymbolName`Resistor`" c_partid="part_import_419356" c_shapetype="group" package-default="R3" c_etype="pinpart"><g xmlns="http://www.w3.org/2000/svg" c_partid="part_annotation"><text x="-233.984375" y="-157.765625" font-family="Arial" font-size="7pt" fill="#000080" text-anchor="start"/></g><g xmlns="http://www.w3.org/2000/svg" c_partid="part_annotation"><text x="-233.99998474121094" y="-166.6015625" font-family="Arial" font-size="7pt" fill="#000080" text-anchor="start"/></g><rect x="-244" y="-180" width="8" height="20" stroke="#A00000" stroke-width="1" fill="none"/><g c_partid="part_pin" c_etype="pinpart" c_show="show" c_elec="0" c_spicepin="2" c_origin="-260,-150"><path d="M -240 -180 v -10" fill="none" stroke="#800" stroke-width="1"/><text x="-240" y="-176" font-family="Verdana" font-size="7pt" fill="#800" text-anchor="end" display="none" transform="rotate(270,-240,-176)">2</text><text x="-244" y="-184" font-family="Verdana" font-size="7pt" fill="#800" text-anchor="start" display="none" transform="rotate(270,-244,-184)">2</text><circle cx="-260" cy="-163" r="3" stroke="#800" fill="none" stroke-width="1" display="none"/><path d="M -263 -160 L -260 -157 L -257 -160" fill="none" stroke="#800" stroke-width="1" display="none"/></g><g c_partid="part_pin" c_etype="pinpart" c_show="show" c_elec="0" c_spicepin="1" c_origin="-260,-150"><path d="M -240 -160 v 10" fill="none" stroke="#800" stroke-width="1"/><text x="-240" y="-164" font-family="Verdana" font-size="7pt" fill="#800" text-anchor="start" display="none" transform="rotate(270,-240,-164)">1</text><text x="-244" y="-156" font-family="Verdana" font-size="7pt" fill="#800" text-anchor="end" display="none" transform="rotate(270,-244,-156)">1</text><circle cx="-260" cy="-137" r="3" stroke="#800" fill="none" stroke-width="1" display="none"/><path d="M -257 -140 L -260 -143 L -263 -140" fill="none" stroke="#800" stroke-width="1" display="none"/></g></g><g eelibtitle="Resistor(EU)" c_origin="-200,-170" c_para="package`R3`nameAlias`Value(&#937;)`BOM_Manufacturer Part`?`spicePre`R`spiceSymbolName`Resistor`" c_partid="part_import_419356" c_shapetype="group" package-default="R3" c_etype="pinpart"><g xmlns="http://www.w3.org/2000/svg" c_partid="part_annotation"><text x="-193.984375" y="-157.765625" font-family="Arial" font-size="7pt" fill="#000080" text-anchor="start"/></g><g xmlns="http://www.w3.org/2000/svg" c_partid="part_annotation"><text x="-193.99998474121094" y="-166.6015625" font-family="Arial" font-size="7pt" fill="#000080" text-anchor="start"/></g><rect x="-204" y="-180" width="8" height="20" stroke="#A00000" stroke-width="1" fill="none"/><g c_partid="part_pin" c_etype="pinpart" c_show="show" c_elec="0" c_spicepin="2" c_origin="-220,-150"><path d="M -200 -180 v -10" fill="none" stroke="#800" stroke-width="1"/><text x="-200" y="-176" font-family="Verdana" font-size="7pt" fill="#800" text-anchor="end" display="none" transform="rotate(270,-200,-176)">2</text><text x="-204" y="-184" font-family="Verdana" font-size="7pt" fill="#800" text-anchor="start" display="none" transform="rotate(270,-204,-184)">2</text><circle cx="-220" cy="-163" r="3" stroke="#800" fill="none" stroke-width="1" display="none"/><path d="M -223 -160 L -220 -157 L -217 -160" fill="none" stroke="#800" stroke-width="1" display="none"/></g><g c_partid="part_pin" c_etype="pinpart" c_show="show" c_elec="0" c_spicepin="1" c_origin="-220,-150"><path d="M -200 -160 v 10" fill="none" stroke="#800" stroke-width="1"/><text x="-200" y="-164" font-family="Verdana" font-size="7pt" fill="#800" text-anchor="start" display="none" transform="rotate(270,-200,-164)">1</text><text x="-204" y="-156" font-family="Verdana" font-size="7pt" fill="#800" text-anchor="end" display="none" transform="rotate(270,-204,-156)">1</text><circle cx="-220" cy="-137" r="3" stroke="#800" fill="none" stroke-width="1" display="none"/><path d="M -217 -140 L -220 -143 L -223 -140" fill="none" stroke="#800" stroke-width="1" display="none"/></g></g><g eelibtitle="SPST OFF" c_origin="-130,-60" c_para="package`TACTILE-PTH`spicePre`X`BOM_Manufacturer Part`?`" c_partid="part_import_085765" c_shapetype="group" package-default="TACTILE-PTH"><g xmlns="http://www.w3.org/2000/svg" c_partid="part_annotation" display="none"><text x="-135.84375" y="-71.75" font-family="Arial" font-size="7pt" fill="#000080" text-anchor="start">SPST_OFF</text></g><g xmlns="http://www.w3.org/2000/svg" c_partid="part_annotation"><text x="-135.8359375" y="-80.578125" font-family="Arial" font-size="7pt" fill="#000080" text-anchor="start">CTRL+C</text></g><g c_partid="part_pin" c_etype="pinpart" c_show="show" c_elec="0" c_spicepin="1" c_origin="-140,-60"><path d="M -140 -60 h -10" fill="none" stroke="#800" stroke-width="1"/><text x="-135" y="-60" font-family="Verdana" font-size="7pt" fill="#800" text-anchor="start" display="none">1 </text><text x="-152" y="-66.5" font-family="Verdana" font-size="7pt" fill="#800" text-anchor="end" display="none">1 </text><circle cx="-153" cy="-60" r="3" stroke="#800" fill="none" stroke-width="1" display="none"/><path d="M -150 -57 L -147 -60 L -150 -63" fill="none" stroke="#800" stroke-width="1" display="none"/></g><g c_partid="part_pin" c_etype="pinpart" c_show="show" c_elec="0" c_spicepin="2" c_origin="-120,-60"><path d="M -120 -60 h 10" fill="none" stroke="#800" stroke-width="1"/><text x="-125" y="-60" font-family="Verdana" font-size="7pt" fill="#800" text-anchor="end" display="none">2 </text><text x="-108" y="-69" font-family="Verdana" font-size="7pt" fill="#800" text-anchor="start" display="none">2 </text><circle cx="-107" cy="-60" r="3" stroke="#800" fill="none" stroke-width="1" display="none"/><path d="M -110 -63 L -113 -60 L -110 -57" fill="none" stroke="#800" stroke-width="1" display="none"/></g><ellipse cx="-138.625" cy="-59.625" rx="1.5" ry="1.5" stroke="#A00000" stroke-width="1" fill="none"/><ellipse cx="-120.875" cy="-59.875" rx="1.5" ry="1.5" stroke="#A00000" stroke-width="1" fill="none"/><polyline points="-137 -60.25 -121.75 -68.75" stroke="#A00000" stroke-width="1" fill="none" stroke-linecap="round"/></g><g eelibtitle="SPST OFF" c_origin="-130,-20" c_para="package`TACTILE-PTH`spicePre`X`BOM_Manufacturer Part`?`" c_partid="part_import_085765" c_shapetype="group" package-default="TACTILE-PTH"><g xmlns="http://www.w3.org/2000/svg" c_partid="part_annotation" display="none"><text x="-135.84375" y="-31.75" font-family="Arial" font-size="7pt" fill="#000080" text-anchor="start">SPST_OFF</text></g><g xmlns="http://www.w3.org/2000/svg" c_partid="part_annotation"><text x="-135.8359375" y="-40.578125" font-family="Arial" font-size="7pt" fill="#000080" text-anchor="start">CTRL+V</text></g><g c_partid="part_pin" c_etype="pinpart" c_show="show" c_elec="0" c_spicepin="1" c_origin="-140,-20"><path d="M -140 -20 h -10" fill="none" stroke="#800" stroke-width="1"/><text x="-135" y="-20" font-family="Verdana" font-size="7pt" fill="#800" text-anchor="start" display="none">1 </text><text x="-152" y="-26.5" font-family="Verdana" font-size="7pt" fill="#800" text-anchor="end" display="none">1 </text><circle cx="-153" cy="-20" r="3" stroke="#800" fill="none" stroke-width="1" display="none"/><path d="M -150 -17 L -147 -20 L -150 -23" fill="none" stroke="#800" stroke-width="1" display="none"/></g><g c_partid="part_pin" c_etype="pinpart" c_show="show" c_elec="0" c_spicepin="2" c_origin="-120,-20"><path d="M -120 -20 h 10" fill="none" stroke="#800" stroke-width="1"/><text x="-125" y="-20" font-family="Verdana" font-size="7pt" fill="#800" text-anchor="end" display="none">2 </text><text x="-108" y="-29" font-family="Verdana" font-size="7pt" fill="#800" text-anchor="start" display="none">2 </text><circle cx="-107" cy="-20" r="3" stroke="#800" fill="none" stroke-width="1" display="none"/><path d="M -110 -23 L -113 -20 L -110 -17" fill="none" stroke="#800" stroke-width="1" display="none"/></g><ellipse cx="-138.625" cy="-19.625" rx="1.5" ry="1.5" stroke="#A00000" stroke-width="1" fill="none"/><ellipse cx="-120.875" cy="-19.875" rx="1.5" ry="1.5" stroke="#A00000" stroke-width="1" fill="none"/><polyline points="-137 -20.25 -121.75 -28.75" stroke="#A00000" stroke-width="1" fill="none" stroke-linecap="round"/></g><polyline points="-80 -190 -30 -190 -30 -60 -110 -60" stroke="#008800" stroke-width="1" fill="none" c_shapetype="line"/><polyline points="-110 -20 -30 -20 -30 -60" stroke="#008800" stroke-width="1" fill="none" c_shapetype="line"/><g c_partid="part_junction" c_etype="pinpart" c_origin="-30,-60"><circle cx="-30" cy="-60" r="2.5" fill="#CC0000" stroke-width="1"/></g><polyline points="-150 -60 -200 -60 -200 -150" stroke="#008800" stroke-width="1" fill="none" c_shapetype="line"/><polyline points="-170 -150 -240 -150 -240 -20 -150 -20" stroke="#008800" stroke-width="1" fill="none" c_shapetype="line"/><polyline points="-200 -190 -200 -200 -170 -200" stroke="#008800" stroke-width="1" fill="none" c_shapetype="line"/><polyline points="-240 -190 -240 -200 -200 -200" stroke="#008800" stroke-width="1" fill="none" c_shapetype="line"/><g c_partid="part_junction" c_etype="pinpart" c_origin="-200,-200"><circle cx="-200" cy="-200" r="2.5" fill="#CC0000" stroke-width="1"/></g><g c_partid="part_junction" c_etype="pinpart" c_origin="-200,-150"><circle cx="-200" cy="-150" r="2" fill="#009900" stroke-width="1"/></g><g c_partid="part_junction" c_etype="pinpart" c_origin="-240,-150"><circle cx="-240" cy="-150" r="2.5" fill="#CC0000" stroke-width="1"/></g><polyline points="-170 -130 -200 -130" stroke="#008800" stroke-width="1" fill="none" c_shapetype="line"/><g c_partid="part_junction" c_etype="pinpart" c_origin="-200,-130"><circle cx="-200" cy="-130" r="2.5" fill="#CC0000" stroke-width="1"/></g></g></svg>
